<svg width="477" height="477" viewBox="0 0 477 477" fill="none" xmlns="http://www.w3.org/2000/svg">
<g clip-path="url(#clip0_65_392)">
<path d="M250.474 336.279C223.902 314.347 169.697 271.373 174.287 210.238C174.232 204.052 176.388 194.599 180.352 185.802C170.653 171.55 172.245 151.971 178.667 135.967C192.377 101.803 218.719 79.8982 254.053 70.5841" stroke="white" stroke-width="7.66389" stroke-miterlimit="1.5" stroke-linecap="round" stroke-linejoin="round"/>
<path d="M212.762 165.153C198.261 158.669 186.866 171.35 180.353 185.802C182.369 188.765 184.874 191.498 187.925 193.921C207.971 209.837 238.321 176.584 212.762 165.153Z" stroke="white" stroke-width="7.66389" stroke-miterlimit="1.5" stroke-linecap="round" stroke-linejoin="round"/>
<path d="M250.475 336.28C251.261 324.166 246.728 299.914 244.429 288.127M250.475 336.28C240.576 331.557 219.103 324.245 209.243 319.462L250.475 336.28Z" stroke="white" stroke-width="7.66389" stroke-miterlimit="1.5" stroke-linecap="round" stroke-linejoin="round"/>
</g>
<defs>
<clipPath id="clip0_65_392">
<rect width="338.388" height="338.388" fill="white" transform="translate(0.398438 214.124) rotate(-39.1349)"/>
</clipPath>
</defs>
</svg>
