<svg width="24" height="23" viewBox="0 0 24 23" fill="none" xmlns="http://www.w3.org/2000/svg">
<g clip-path="url(#clip0_1_385)">
<path d="M4.99458 0C2.66816 0 0.794922 1.87323 0.794922 4.19966V18.8004C0.794922 21.1268 2.66816 23 4.99458 23H12.908V14.0084H10.5304V10.7712H12.908V8.00545C12.908 5.83252 14.3128 3.83741 17.549 3.83741C18.8593 3.83741 19.8282 3.9632 19.8282 3.9632L19.752 6.98627C19.752 6.98627 18.7638 6.97693 17.6855 6.97693C16.5185 6.97693 16.3314 7.51463 16.3314 8.40726V10.7712H19.8447L19.6916 14.0085H16.3314V23H19.5953C21.9217 23 23.7949 21.1268 23.7949 18.8004V4.19969C23.7949 1.87326 21.9217 2.3e-05 19.5953 2.3e-05H4.99456L4.99458 0Z" fill="#3148A1"/>
</g>
<defs>
<clipPath id="clip0_1_385">
<rect width="23" height="23" fill="white" transform="translate(0.794922)"/>
</clipPath>
</defs>
</svg>
