<svg width="2169" height="819" viewBox="0 0 2169 819" fill="none" xmlns="http://www.w3.org/2000/svg">
<rect x="246.205" y="5.37891" width="1920" height="828.703" transform="rotate(-0.160573 246.205 5.37891)" fill="url(#paint0_linear_65_126)"/>
<g filter="url(#filter0_f_65_126)">
<ellipse cx="176" cy="628.998" rx="213" ry="203" fill="#FD823D" fill-opacity="0.19"/>
</g>
<g filter="url(#filter1_f_65_126)">
<ellipse cx="2099.5" cy="673.498" rx="187.5" ry="73.5" fill="#35589A" fill-opacity="0.17"/>
</g>
<g filter="url(#filter2_f_65_126)">
<ellipse cx="2199" cy="486.998" rx="213" ry="203" fill="#FD823D" fill-opacity="0.19"/>
</g>
<circle cx="309.827" cy="338.903" r="18.5" fill="url(#paint1_linear_65_126)"/>
<circle cx="2055" cy="565.997" r="12" fill="url(#paint2_linear_65_126)"/>
<g clip-path="url(#clip0_65_126)">
<path d="M215.213 712.545C209.445 718.779 209.724 724.64 215.957 726.315C221.726 727.897 232.332 718.5 229.076 714.592C225.633 710.498 218.097 709.382 215.213 712.545Z" fill="#35589A"/>
<path d="M213.539 782.799C209.725 783.451 204.421 795.547 206.654 798.245C211.12 803.641 217.354 802.245 222.378 794.708C227.681 786.521 223.681 781.032 213.539 782.799Z" fill="#35589A"/>
<path d="M194.84 677.104C190.746 678.686 188.606 687.618 191.583 690.316C196.142 694.41 200.236 693.385 205.074 686.966C210.005 680.546 203.12 673.848 194.84 677.104Z" fill="#35589A"/>
<path d="M179.575 741.487C177.156 743.441 173.248 749.952 173.248 752.092C173.248 759.908 188.134 756.559 192.879 747.627C195.205 743.255 183.855 738.044 179.575 741.487Z" fill="#35589A"/>
<path d="M247.397 748.366C242.466 749.111 239.396 759.346 243.211 762.044C246.653 764.463 248.98 763.811 253.539 758.88C260.889 751.157 255.585 747.157 247.397 748.366Z" fill="#35589A"/>
<path d="M267.303 782.143C259.395 793.215 259.767 800.751 268.14 800.751C270.931 800.751 282.189 788.005 282.189 784.842C282.096 779.167 270.838 777.119 267.303 782.143Z" fill="#35589A"/>
<path d="M289.55 733.12C284.898 735.446 281.362 748.563 284.898 750.424C289.643 752.936 295.597 749.401 300.807 740.934C303.971 735.724 295.783 730.049 289.55 733.12Z" fill="#35589A"/>
<path d="M243.021 650.32C232.321 661.763 231.856 670.602 241.997 670.602C245.44 670.602 254.743 662.135 258 656.088C260.884 650.506 247.579 645.388 243.021 650.32Z" fill="#35589A"/>
<path d="M279.222 694.206C274.477 691.787 270.197 692.44 268.057 695.882C259.497 709.745 269.825 715.234 280.152 702.209C283.502 698.115 283.222 696.253 279.222 694.206Z" fill="#35589A"/>
<path d="M319.036 683.162C317.919 679.812 310.104 677.207 306.568 678.975C303.777 680.37 299.032 693.118 300.614 694.978C304.708 700.003 321.176 689.395 319.036 683.162Z" fill="#35589A"/>
<path d="M307.021 821.32C296.321 832.763 295.856 841.602 305.997 841.602C309.44 841.602 318.743 833.135 322 827.088C324.884 821.506 311.579 816.388 307.021 821.32Z" fill="#35589A"/>
</g>
<path d="M2105.41 331.893C2100.52 337.169 2100.76 342.13 2106.04 343.548C2110.92 344.887 2119.9 336.933 2117.14 333.625C2114.23 330.16 2107.85 329.215 2105.41 331.893Z" fill="#2B2C2E"/>
<path d="M2103.99 391.357C2100.76 391.908 2096.27 402.146 2098.16 404.43C2101.94 408.998 2107.22 407.816 2111.47 401.437C2115.96 394.507 2112.57 389.861 2103.99 391.357Z" fill="#2B2C2E"/>
<path d="M2088.16 301.895C2084.7 303.233 2082.89 310.793 2085.41 313.077C2089.26 316.542 2092.73 315.675 2096.82 310.241C2101 304.808 2095.17 299.138 2088.16 301.895Z" fill="#2B2C2E"/>
<path d="M2075.24 356.389C2073.19 358.043 2069.89 363.555 2069.89 365.366C2069.89 371.981 2082.49 369.147 2086.5 361.587C2088.47 357.886 2078.86 353.476 2075.24 356.389Z" fill="#2B2C2E"/>
<path d="M2132.65 362.212C2128.47 362.842 2125.88 371.506 2129.1 373.79C2132.02 375.837 2133.99 375.285 2137.85 371.111C2144.07 364.575 2139.58 361.189 2132.65 362.212Z" fill="#2B2C2E"/>
<path d="M2149.5 390.801C2142.8 400.172 2143.12 406.551 2150.21 406.551C2152.57 406.551 2162.1 395.763 2162.1 393.085C2162.02 388.282 2152.49 386.548 2149.5 390.801Z" fill="#2B2C2E"/>
<path d="M2168.33 349.307C2164.39 351.276 2161.4 362.379 2164.39 363.954C2168.41 366.08 2173.45 363.087 2177.86 355.921C2180.53 351.511 2173.6 346.708 2168.33 349.307Z" fill="#2B2C2E"/>
<path d="M2128.94 279.223C2119.89 288.909 2119.49 296.39 2128.08 296.39C2130.99 296.39 2138.87 289.224 2141.62 284.105C2144.06 279.38 2132.8 275.049 2128.94 279.223Z" fill="#2B2C2E"/>
<path d="M2159.59 316.37C2155.57 314.322 2151.95 314.875 2150.14 317.788C2142.89 329.522 2151.63 334.168 2160.37 323.143C2163.21 319.678 2162.97 318.102 2159.59 316.37Z" fill="#2B2C2E"/>
<defs>
<filter id="filter0_f_65_126" x="-183" y="279.998" width="718" height="698" filterUnits="userSpaceOnUse" color-interpolation-filters="sRGB">
<feFlood flood-opacity="0" result="BackgroundImageFix"/>
<feBlend mode="normal" in="SourceGraphic" in2="BackgroundImageFix" result="shape"/>
<feGaussianBlur stdDeviation="73" result="effect1_foregroundBlur_65_126"/>
</filter>
<filter id="filter1_f_65_126" x="1766" y="453.998" width="667" height="439" filterUnits="userSpaceOnUse" color-interpolation-filters="sRGB">
<feFlood flood-opacity="0" result="BackgroundImageFix"/>
<feBlend mode="normal" in="SourceGraphic" in2="BackgroundImageFix" result="shape"/>
<feGaussianBlur stdDeviation="73" result="effect1_foregroundBlur_65_126"/>
</filter>
<filter id="filter2_f_65_126" x="1840" y="137.998" width="718" height="698" filterUnits="userSpaceOnUse" color-interpolation-filters="sRGB">
<feFlood flood-opacity="0" result="BackgroundImageFix"/>
<feBlend mode="normal" in="SourceGraphic" in2="BackgroundImageFix" result="shape"/>
<feGaussianBlur stdDeviation="73" result="effect1_foregroundBlur_65_126"/>
</filter>
<linearGradient id="paint0_linear_65_126" x1="1788.22" y1="360.324" x2="650.517" y2="670.059" gradientUnits="userSpaceOnUse">
<stop stop-color="#E2E8FA"/>
<stop offset="1" stop-color="#DFF0FF" stop-opacity="0"/>
</linearGradient>
<linearGradient id="paint1_linear_65_126" x1="296.827" y1="357.403" x2="328.327" y2="311.903" gradientUnits="userSpaceOnUse">
<stop stop-color="#FF650F"/>
<stop offset="1" stop-color="#FF8540" stop-opacity="0"/>
</linearGradient>
<linearGradient id="paint2_linear_65_126" x1="2046.57" y1="577.997" x2="2067" y2="548.484" gradientUnits="userSpaceOnUse">
<stop stop-color="#FF650F"/>
<stop offset="1" stop-color="#FF8540" stop-opacity="0"/>
</linearGradient>
<clipPath id="clip0_65_126">
<rect width="372.156" height="372.156" fill="white" transform="translate(60.2051 538.997)"/>
</clipPath>
</defs>
</svg>
