<svg width="1920" height="979" viewBox="0 0 1920 979" fill="none" xmlns="http://www.w3.org/2000/svg">
<g filter="url(#filter0_d_1_308)">
<rect y="6.37891" width="1920" height="828.703" transform="rotate(-0.160573 0 6.37891)" fill="url(#paint0_linear_1_308)"/>
<g filter="url(#filter1_f_1_308)">
<ellipse cx="-70.2051" cy="629.998" rx="213" ry="203" fill="#FD823D" fill-opacity="0.19"/>
</g>
<g filter="url(#filter2_f_1_308)">
<ellipse cx="1853.29" cy="674.498" rx="187.5" ry="73.5" fill="#35589A" fill-opacity="0.17"/>
</g>
<g filter="url(#filter3_f_1_308)">
<ellipse cx="1952.79" cy="487.998" rx="213" ry="203" fill="#FD823D" fill-opacity="0.19"/>
</g>
<circle cx="63.6221" cy="339.903" r="18.5" fill="url(#paint1_linear_1_308)"/>
<circle cx="1808.79" cy="566.997" r="12" fill="url(#paint2_linear_1_308)"/>
<g clip-path="url(#clip0_1_308)">
<path d="M1.19218 749.366C-3.73889 750.111 -6.80918 760.346 -2.99458 763.044C0.447869 765.463 2.77477 764.811 7.33369 759.88C14.6838 752.157 9.37962 748.157 1.19218 749.366Z" fill="#35589A"/>
<path d="M21.0978 783.143C13.1895 794.215 13.5616 801.751 21.9351 801.751C24.7263 801.751 35.984 789.005 35.984 785.842C35.891 780.167 24.6333 778.119 21.0978 783.143Z" fill="#35589A"/>
<path d="M43.3445 734.12C38.6926 736.446 35.1571 749.563 38.6926 751.424C43.4376 753.936 49.3921 750.401 54.6022 741.934C57.7656 736.724 49.5781 731.049 43.3445 734.12Z" fill="#35589A"/>
<path d="M-3.18452 651.32C-13.884 662.763 -14.3492 671.602 -4.20795 671.602C-0.765509 671.602 8.53841 663.135 11.7948 657.088C14.679 651.506 1.37439 646.388 -3.18452 651.32Z" fill="#35589A"/>
<path d="M33.0168 695.206C28.2718 692.787 23.992 693.44 21.8521 696.882C13.2925 710.745 23.6199 716.234 33.9472 703.209C37.2966 699.115 37.0175 697.253 33.0168 695.206Z" fill="#35589A"/>
<path d="M72.8306 684.162C71.7142 680.812 63.8989 678.207 60.3634 679.975C57.5722 681.37 52.8272 694.118 54.4089 695.978C58.5026 701.003 74.9705 690.395 72.8306 684.162Z" fill="#35589A"/>
<path d="M33.0079 884.545C27.2395 890.779 27.5186 896.64 33.7522 898.315C39.5206 899.897 50.1271 890.5 46.8707 886.592C43.4283 882.498 35.8921 881.382 33.0079 884.545Z" fill="#35589A"/>
<path d="M12.6346 849.104C8.54088 850.686 6.40098 859.618 9.37823 862.316C13.9371 866.41 18.0309 865.385 22.8689 858.966C27.8 852.546 20.9151 845.848 12.6346 849.104Z" fill="#35589A"/>
<path d="M-2.63037 913.487C-5.04939 915.441 -8.95703 921.952 -8.95703 924.092C-8.95703 931.908 5.92923 928.559 10.6742 919.627C13.0002 915.255 1.64942 910.044 -2.63037 913.487Z" fill="#35589A"/>
<path d="M107.345 905.12C102.693 907.446 99.1571 920.563 102.693 922.424C107.438 924.936 113.392 921.401 118.602 912.934C121.766 907.724 113.578 902.049 107.345 905.12Z" fill="#35589A"/>
<path d="M60.8155 822.32C50.116 833.763 49.6508 842.602 59.792 842.602C63.2345 842.602 72.5384 834.135 75.7948 828.088C78.679 822.506 65.3744 817.388 60.8155 822.32Z" fill="#35589A"/>
<path d="M97.0168 866.206C92.2718 863.787 87.992 864.44 85.8521 867.882C77.2925 881.745 87.6199 887.234 97.9472 874.209C101.297 870.115 101.018 868.253 97.0168 866.206Z" fill="#35589A"/>
<path d="M136.831 855.162C135.714 851.812 127.899 849.207 124.363 850.975C121.572 852.37 116.827 865.118 118.409 866.978C122.503 872.003 138.971 861.395 136.831 855.162Z" fill="#35589A"/>
</g>
<path d="M1859.2 332.893C1854.32 338.169 1854.56 343.13 1859.83 344.548C1864.71 345.887 1873.69 337.933 1870.94 334.625C1868.02 331.16 1861.64 330.215 1859.2 332.893Z" fill="#2B2C2E"/>
<path d="M1857.79 392.357C1854.56 392.908 1850.07 403.146 1851.96 405.43C1855.74 409.998 1861.01 408.816 1865.27 402.437C1869.76 395.507 1866.37 390.861 1857.79 392.357Z" fill="#2B2C2E"/>
<path d="M1841.96 302.895C1838.49 304.233 1836.68 311.793 1839.2 314.077C1843.06 317.542 1846.52 316.675 1850.62 311.241C1854.79 305.808 1848.97 300.138 1841.96 302.895Z" fill="#2B2C2E"/>
<path d="M1829.04 357.389C1826.99 359.043 1823.68 364.555 1823.68 366.366C1823.68 372.981 1836.28 370.147 1840.3 362.587C1842.27 358.886 1832.66 354.476 1829.04 357.389Z" fill="#2B2C2E"/>
<path d="M1886.44 363.212C1882.27 363.842 1879.67 372.506 1882.9 374.79C1885.81 376.837 1887.78 376.285 1891.64 372.111C1897.86 365.575 1893.37 362.189 1886.44 363.212Z" fill="#2B2C2E"/>
<path d="M1903.29 391.801C1896.6 401.172 1896.91 407.551 1904 407.551C1906.36 407.551 1915.89 396.763 1915.89 394.085C1915.81 389.282 1906.28 387.548 1903.29 391.801Z" fill="#2B2C2E"/>
<path d="M1922.12 350.307C1918.18 352.276 1915.19 363.379 1918.18 364.954C1922.2 367.08 1927.24 364.087 1931.65 356.921C1934.33 352.511 1927.4 347.708 1922.12 350.307Z" fill="#2B2C2E"/>
<path d="M1882.74 280.223C1873.68 289.909 1873.29 297.39 1881.87 297.39C1884.79 297.39 1892.66 290.224 1895.42 285.105C1897.86 280.38 1886.6 276.049 1882.74 280.223Z" fill="#2B2C2E"/>
<path d="M1913.38 317.37C1909.36 315.322 1905.74 315.875 1903.93 318.788C1896.69 330.522 1905.43 335.168 1914.17 324.143C1917 320.678 1916.77 319.102 1913.38 317.37Z" fill="#2B2C2E"/>
</g>
<defs>
<filter id="filter0_d_1_308" x="-287.205" y="0.998047" width="2457" height="919.155" filterUnits="userSpaceOnUse" color-interpolation-filters="sRGB">
<feFlood flood-opacity="0" result="BackgroundImageFix"/>
<feColorMatrix in="SourceAlpha" type="matrix" values="0 0 0 0 0 0 0 0 0 0 0 0 0 0 0 0 0 0 127 0" result="hardAlpha"/>
<feOffset dy="4"/>
<feGaussianBlur stdDeviation="2"/>
<feComposite in2="hardAlpha" operator="out"/>
<feColorMatrix type="matrix" values="0 0 0 0 0 0 0 0 0 0 0 0 0 0 0 0 0 0 0.25 0"/>
<feBlend mode="normal" in2="BackgroundImageFix" result="effect1_dropShadow_1_308"/>
<feBlend mode="normal" in="SourceGraphic" in2="effect1_dropShadow_1_308" result="shape"/>
</filter>
<filter id="filter1_f_1_308" x="-429.205" y="280.998" width="718" height="698" filterUnits="userSpaceOnUse" color-interpolation-filters="sRGB">
<feFlood flood-opacity="0" result="BackgroundImageFix"/>
<feBlend mode="normal" in="SourceGraphic" in2="BackgroundImageFix" result="shape"/>
<feGaussianBlur stdDeviation="73" result="effect1_foregroundBlur_1_308"/>
</filter>
<filter id="filter2_f_1_308" x="1519.79" y="454.998" width="667" height="439" filterUnits="userSpaceOnUse" color-interpolation-filters="sRGB">
<feFlood flood-opacity="0" result="BackgroundImageFix"/>
<feBlend mode="normal" in="SourceGraphic" in2="BackgroundImageFix" result="shape"/>
<feGaussianBlur stdDeviation="73" result="effect1_foregroundBlur_1_308"/>
</filter>
<filter id="filter3_f_1_308" x="1593.79" y="138.998" width="718" height="698" filterUnits="userSpaceOnUse" color-interpolation-filters="sRGB">
<feFlood flood-opacity="0" result="BackgroundImageFix"/>
<feBlend mode="normal" in="SourceGraphic" in2="BackgroundImageFix" result="shape"/>
<feGaussianBlur stdDeviation="73" result="effect1_foregroundBlur_1_308"/>
</filter>
<linearGradient id="paint0_linear_1_308" x1="1542.01" y1="361.324" x2="404.312" y2="671.059" gradientUnits="userSpaceOnUse">
<stop stop-color="#E2E8FA"/>
<stop offset="1" stop-color="#DFF0FF" stop-opacity="0"/>
</linearGradient>
<linearGradient id="paint1_linear_1_308" x1="50.6221" y1="358.403" x2="82.1221" y2="312.903" gradientUnits="userSpaceOnUse">
<stop stop-color="#FF650F"/>
<stop offset="1" stop-color="#FF8540" stop-opacity="0"/>
</linearGradient>
<linearGradient id="paint2_linear_1_308" x1="1800.36" y1="578.997" x2="1820.79" y2="549.484" gradientUnits="userSpaceOnUse">
<stop stop-color="#FF650F"/>
<stop offset="1" stop-color="#FF8540" stop-opacity="0"/>
</linearGradient>
<clipPath id="clip0_1_308">
<rect width="372.156" height="372.156" fill="white" transform="translate(-186 539.997)"/>
</clipPath>
</defs>
</svg>
