<svg width="23" height="22" viewBox="0 0 23 22" fill="none" xmlns="http://www.w3.org/2000/svg">
<path fill-rule="evenodd" clip-rule="evenodd" d="M7.25992 0.066C8.43292 0.012 8.80692 0 11.7949 0C14.7829 0 15.1569 0.013 16.3289 0.066C17.5009 0.119 18.3009 0.306 19.0009 0.577C19.7339 0.854 20.3989 1.287 20.9489 1.847C21.5089 2.396 21.9409 3.06 22.2169 3.794C22.4889 4.494 22.6749 5.294 22.7289 6.464C22.7829 7.639 22.7949 8.013 22.7949 11C22.7949 13.988 22.7819 14.362 22.7289 15.535C22.6759 16.705 22.4889 17.505 22.2169 18.205C21.9409 18.9391 21.5082 19.6042 20.9489 20.154C20.3989 20.714 19.7339 21.146 19.0009 21.422C18.3009 21.694 17.5009 21.88 16.3309 21.934C15.1569 21.988 14.7829 22 11.7949 22C8.80692 22 8.43292 21.987 7.25992 21.934C6.08992 21.881 5.28992 21.694 4.58992 21.422C3.85584 21.146 3.19074 20.7133 2.64092 20.154C2.0813 19.6047 1.64824 18.9399 1.37192 18.206C1.10092 17.506 0.914922 16.706 0.860922 15.536C0.806922 14.361 0.794922 13.987 0.794922 11C0.794922 8.012 0.807922 7.638 0.860922 6.466C0.913922 5.294 1.10092 4.494 1.37192 3.794C1.64864 3.06008 2.08204 2.39531 2.64192 1.846C3.19096 1.2865 3.85539 0.853443 4.58892 0.577C5.28892 0.306 6.08892 0.12 7.25892 0.066H7.25992ZM16.2399 2.046C15.0799 1.993 14.7319 1.982 11.7949 1.982C8.85792 1.982 8.50992 1.993 7.34992 2.046C6.27692 2.095 5.69492 2.274 5.30692 2.425C4.79392 2.625 4.42692 2.862 4.04192 3.247C3.67697 3.60205 3.3961 4.03428 3.21992 4.512C3.06892 4.9 2.88992 5.482 2.84092 6.555C2.78792 7.715 2.77692 8.063 2.77692 11C2.77692 13.937 2.78792 14.285 2.84092 15.445C2.88992 16.518 3.06892 17.1 3.21992 17.488C3.39592 17.965 3.67692 18.398 4.04192 18.753C4.39692 19.118 4.82992 19.399 5.30692 19.575C5.69492 19.726 6.27692 19.905 7.34992 19.954C8.50992 20.007 8.85692 20.018 11.7949 20.018C14.7329 20.018 15.0799 20.007 16.2399 19.954C17.3129 19.905 17.8949 19.726 18.2829 19.575C18.7959 19.375 19.1629 19.138 19.5479 18.753C19.9129 18.398 20.1939 17.965 20.3699 17.488C20.5209 17.1 20.6999 16.518 20.7489 15.445C20.8019 14.285 20.8129 13.937 20.8129 11C20.8129 8.063 20.8019 7.715 20.7489 6.555C20.6999 5.482 20.5209 4.9 20.3699 4.512C20.1699 3.999 19.9329 3.632 19.5479 3.247C19.1928 2.88207 18.7606 2.60121 18.2829 2.425C17.8949 2.274 17.3129 2.095 16.2399 2.046ZM10.3899 14.391C11.1746 14.7176 12.0483 14.7617 12.8619 14.5157C13.6754 14.2697 14.3783 13.7489 14.8505 13.0422C15.3227 12.3356 15.535 11.4869 15.451 10.6411C15.367 9.79534 14.9919 9.00497 14.3899 8.405C14.0062 8.02148 13.5421 7.72781 13.0313 7.54515C12.5204 7.36248 11.9754 7.29536 11.4354 7.34862C10.8955 7.40187 10.3741 7.57418 9.90873 7.85313C9.44338 8.13208 9.04567 8.51074 8.74422 8.96185C8.44278 9.41296 8.24511 9.92529 8.16544 10.462C8.08576 10.9986 8.12607 11.5463 8.28346 12.0655C8.44085 12.5847 8.7114 13.0626 9.07564 13.4647C9.43988 13.8668 9.88875 14.1832 10.3899 14.391ZM7.79692 7.002C8.32195 6.47697 8.94524 6.0605 9.63122 5.77636C10.3172 5.49222 11.0524 5.34597 11.7949 5.34597C12.5374 5.34597 13.2726 5.49222 13.9586 5.77636C14.6446 6.0605 15.2679 6.47697 15.7929 7.002C16.3179 7.52702 16.7344 8.15032 17.0186 8.8363C17.3027 9.52228 17.4489 10.2575 17.4489 11C17.4489 11.7425 17.3027 12.4777 17.0186 13.1637C16.7344 13.8497 16.3179 14.473 15.7929 14.998C14.7326 16.0583 13.2945 16.654 11.7949 16.654C10.2954 16.654 8.85726 16.0583 7.79692 14.998C6.73659 13.9377 6.1409 12.4995 6.1409 11C6.1409 9.50046 6.73659 8.06234 7.79692 7.002ZM18.7029 6.188C18.833 6.06527 18.9372 5.91768 19.0092 5.75397C19.0813 5.59027 19.1197 5.41377 19.1223 5.23493C19.1249 5.05609 19.0916 4.87855 19.0244 4.71281C18.9572 4.54707 18.8574 4.39651 18.7309 4.27004C18.6044 4.14357 18.4538 4.04376 18.2881 3.97652C18.1224 3.90928 17.9448 3.87598 17.766 3.87858C17.5872 3.88119 17.4107 3.91965 17.2469 3.9917C17.0832 4.06374 16.9357 4.1679 16.8129 4.298C16.5742 4.55103 16.4436 4.88712 16.4486 5.23493C16.4537 5.58274 16.5941 5.91488 16.8401 6.16084C17.086 6.40681 17.4182 6.54723 17.766 6.5523C18.1138 6.55737 18.4499 6.42669 18.7029 6.188Z" fill="#3148A1"/>
</svg>
