<svg width="25" height="24" viewBox="0 0 25 24" fill="none" xmlns="http://www.w3.org/2000/svg">
<path fill-rule="evenodd" clip-rule="evenodd" d="M10.2239 8.969H13.9379V10.819C14.4729 9.755 15.8449 8.799 17.9059 8.799C21.8569 8.799 22.7949 10.917 22.7949 14.803V22H18.7949V15.688C18.7949 13.475 18.2599 12.227 16.8979 12.227C15.0089 12.227 14.2239 13.572 14.2239 15.687V22H10.2239V8.969ZM3.36492 21.83H7.36492V8.799H3.36492V21.83ZM7.93792 4.55C7.93807 4.88528 7.87158 5.21724 7.74231 5.52659C7.61304 5.83594 7.42357 6.11651 7.18492 6.352C6.70132 6.83262 6.04673 7.10165 5.36492 7.1C4.68431 7.09954 4.03123 6.8312 3.54692 6.353C3.30913 6.11671 3.12031 5.83582 2.99127 5.52643C2.86222 5.21704 2.7955 4.88522 2.79492 4.55C2.79492 3.873 3.06492 3.225 3.54792 2.747C4.03181 2.26816 4.68516 1.9997 5.36592 2C6.04792 2 6.70192 2.269 7.18492 2.747C7.66692 3.225 7.93792 3.873 7.93792 4.55Z" fill="#3148A1"/>
</svg>
