<svg width="135" height="135" viewBox="0 0 135 135" fill="none" xmlns="http://www.w3.org/2000/svg">
<path fill-rule="evenodd" clip-rule="evenodd" d="M49.335 32.4086C50.1226 32.4498 50.9108 32.491 51.6989 32.5327C52.4386 33.0363 53.3146 32.5711 54.0832 32.8681C56.9626 33.4735 59.6263 34.5075 61.7646 36.6291C62.6658 37.5239 63.6045 37.4666 64.748 36.9001C67.9552 35.3109 71.225 33.8444 74.4783 32.3485C75.1429 32.0425 75.8332 31.7554 75.4788 30.8564C73.9704 27.0266 75.7657 23.3712 76.0802 19.6452C76.2218 17.9641 77.399 19.0791 77.951 19.3345C83.5321 21.9194 89.1027 24.5289 94.6225 27.2403C96.642 28.2326 98.5736 28.4699 100.789 27.9711C106.412 26.7069 112.072 25.598 117.737 24.5275C118.459 24.391 119.67 23.465 120.01 24.6123C120.38 25.8651 120.934 27.6064 119.627 28.5917C117.001 30.5707 116.473 32.8733 117.617 35.8518C118.22 37.4216 116.503 37.4221 115.737 38.0313C115.379 38.3164 114.913 38.4666 114.274 38.7915C115.876 40.9065 117.477 42.9021 118.603 45.2573C122.063 41.8311 123.375 36.9693 122.17 32.4119C121.909 31.4271 122.129 30.5608 122.704 29.7304C124.903 26.552 124.359 21.6754 121.196 19.4311C114.929 14.9837 107.898 11.8971 100.942 8.70168C99.9176 8.23131 98.9532 8.45252 98.5251 9.44678C98.0738 10.4946 99.0506 10.9659 99.8116 11.36C104.926 14.0055 110.053 16.6293 115.173 19.2629C115.865 19.6182 116.547 19.9929 117.715 20.6148C111.336 22.0401 105.445 23.3845 99.5366 24.6516C98.5323 24.8671 97.5052 24.5365 96.5422 24.1163C86.6257 19.7925 76.7011 15.4858 66.7912 11.1464C65.8777 10.7461 64.9817 10.2639 65.1152 8.93947C65.243 7.67662 66.3266 7.75668 67.0297 7.59325C77.7638 5.08794 88.5146 2.65415 99.2615 0.203308C100.044 0.00957115 100.826 -0.00227138 101.607 0.212308C111.514 4.64978 121.42 9.08725 131.326 13.5243C131.818 13.745 132.323 13.9383 132.804 14.1789C133.525 14.5398 134.203 15.0633 134.213 15.8903C134.225 16.9234 133.167 17.0148 132.491 17.2038C130.192 17.8466 127.853 18.3478 125.462 18.919C126.321 20.6058 126.982 22.2633 127.395 24.0116C127.765 25.2655 127.191 26.6031 127.736 27.8418C127.806 28.1327 127.806 28.4676 127.956 28.7087C129.88 31.7971 129.702 32.8885 126.832 35.3753C126.112 35.7794 125.389 35.5354 124.815 35.5814C125.28 35.8651 126.125 35.3104 126.725 35.8485C126.948 36.9565 127.172 38.0654 127.395 39.1733C127.584 40.7407 127.584 42.3077 127.395 43.8746C126.802 46.5339 125.87 48.998 123.466 50.6066C122.782 51.0078 121.922 50.4394 121.268 51.0031C121.885 53.8509 122.502 56.6982 123.119 59.5455C123.445 60.3086 122.959 61.1906 123.469 61.9263C123.459 63.4463 123.448 64.9659 123.437 66.4855C122.982 67.439 123.462 68.5005 123.094 69.4645C121.239 80.2701 116.994 90.0655 110.056 98.5491C103.349 106.75 95.5327 113.848 86.9578 120.098C80.2076 125.019 73.0108 129.217 65.748 133.33C60.3988 136.36 53.488 134.486 48.8038 130.167C46.9791 128.484 45.7444 126.488 44.6893 124.295C43.875 122.603 42.5567 121.687 40.5311 121.399C35.3163 120.657 31.2112 118.212 29.5509 112.88C29.0725 111.345 28.0378 110.645 26.7081 110.243C20.3417 108.318 15.2371 104.806 11.9554 98.8935C10.295 95.9027 10.325 92.6759 10.5193 89.4269C10.6537 87.1731 9.89454 85.6474 7.97005 84.1818C3.90634 81.0863 2.30395 76.5063 3.51109 71.7211C4.32725 68.4844 3.88021 65.9062 2.53863 63.1773C1.44788 60.9599 0.644066 58.6564 0.321497 56.198C0.0806385 54.9465 0.122444 53.6927 0.296318 52.4384C0.681121 47.9677 3.13294 44.9006 6.78809 42.4976C8.38051 41.4513 9.69217 39.9743 11.106 38.6655C13.7986 36.172 16.3939 33.5668 19.1768 31.178C22.3626 28.4434 26.2078 27.1536 30.3608 26.7353C31.2991 26.5278 32.2383 26.5473 33.1785 26.7225C36.3072 27.2256 39.1595 28.3004 41.7059 30.2818C43.1757 31.4257 44.9245 32.2187 46.9178 32.0676C47.6713 32.5531 48.5587 32.0908 49.335 32.4086Z" fill="#3148A1"/>
<path fill-rule="evenodd" clip-rule="evenodd" d="M126.726 35.8482C125.97 35.8482 125.213 35.8482 123.953 35.8482C125.209 35.1382 126.043 35.4716 126.833 35.375C126.797 35.5332 126.762 35.6909 126.726 35.8482Z" fill="#2A41A3"/>
<path fill-rule="evenodd" clip-rule="evenodd" d="M9.99057 44.2742C9.99057 45.3542 9.98962 46.115 9.99057 46.8757C10.0005 55.6829 14.889 61.0606 23.6934 61.8602C28.9177 62.3344 33.979 61.4846 38.7354 59.336C40.8318 58.3886 42.63 58.4435 44.5901 59.4582C47.974 61.2094 51.5075 62.5816 55.3337 62.9615C56.3945 63.0667 58.0477 63.7175 58.3323 62.1279C58.6287 60.4771 57.1028 59.9371 55.6914 59.7916C51.3308 59.3416 47.5697 57.3124 43.8309 55.2845C42.4775 54.5503 41.4527 54.6313 40.095 55.2807C34.4237 57.995 28.426 59.2351 22.1385 58.4393C17.0786 57.7993 13.7184 53.7001 13.3065 48.2361C12.6063 38.9486 25.72 27.2997 35.3458 30.5483C37.0266 31.1153 38.6955 31.742 39.8461 33.0498C41.7307 35.1923 44.0566 35.6546 46.7017 35.4348C50.3156 35.1354 53.7902 35.6281 57.0933 37.2087C60.2007 38.6966 61.9851 41.0607 62.3447 44.5167C62.7376 48.2896 60.9019 50.1465 57.0719 49.768C55.6192 49.6245 54.2985 49.1077 53.1137 48.3039C51.7427 47.374 50.3954 46.3982 49.1132 45.3504C45.0713 42.0484 45.1568 42.1701 40.6214 44.4959C36.3738 46.6744 31.9989 45.7137 27.7238 44.2894C26.9048 44.0165 26.1333 43.5978 25.3494 43.226C24.3931 42.7736 23.8026 43.3055 23.415 44.0355C23.0183 44.7825 23.0596 45.4935 23.8535 46.1126C28.2207 49.5198 37.6712 50.1365 42.6623 47.0727C44.2148 46.1197 45.0319 46.3215 46.2832 47.473C50.4856 51.3406 55.0757 54.2789 61.2312 52.4893C62.3552 52.163 62.7946 52.9682 63.0991 53.8341C64.2801 57.1977 64.6198 60.604 63.4587 64.0415C62.0863 68.1058 59.1532 69.7352 54.9593 68.8414C52.4462 68.3061 50.2543 67.1124 48.0733 65.7927C45.23 64.0709 44.3511 64.5664 44.1297 67.7443C44.0133 69.4117 43.2357 70.7371 42.0988 71.8966C40.8537 73.1671 39.353 74.0145 37.6565 74.5213C36.4598 74.879 36.2294 75.7212 36.6365 76.7391C37.0247 77.7078 37.7876 77.8712 38.7843 77.5377C41.9877 76.4649 44.5872 74.6634 46.1241 71.5869C46.9032 70.0275 47.8262 69.6509 49.4894 70.4874C52.9802 72.2434 56.6658 72.9681 60.4896 71.585C61.3732 71.2657 61.8065 71.5281 62.2017 72.2457C64.8939 77.1337 65.0369 82.1604 62.9704 87.2748C62.368 88.7655 61.0297 89.0748 59.5969 88.7963C57.6392 88.4169 55.6715 88.3458 53.6909 88.3501C48.174 88.36 44.259 91.367 42.8366 96.7295C41.9516 100.066 42.2528 103.472 42.3487 106.857C42.381 107.998 43.011 108.851 44.2989 108.758C45.7977 108.65 45.8034 107.505 45.554 106.478C44.6138 102.615 45.2219 98.9857 46.9469 95.461C48.0476 93.212 49.7868 92.0296 52.2724 91.6677C62.8321 90.1306 65.8212 96.4269 64.8882 104.81C64.4825 108.451 63.0383 111.409 59.0934 112.964C55.3859 114.426 53.8942 118.373 55.051 121.77C55.3931 122.773 55.6287 124.174 57.1157 123.904C58.5727 123.639 58.4021 122.301 58.3066 121.206C58.2316 120.339 58.1185 119.496 58.3465 118.63C58.9124 116.481 60.7713 115.043 63.0217 114.954C65.2778 114.865 65.9443 116.404 66.5258 118.132C68.1942 123.09 67.2426 127.354 63.7803 130.189C62.7267 131.052 61.5803 131.765 60.1575 131.766C55.4791 131.768 49.2984 127.433 47.7445 123.108C47.3797 122.092 47.0761 121.078 48.1488 120.335C53.5232 116.61 55.3988 111.016 56.4558 104.978C56.681 103.693 56.3175 101.95 58.7594 103.2C59.8463 103.756 60.7737 101.93 60.1128 100.523C59.1827 98.5428 53.242 97.3254 51.5626 98.7626C50.8016 99.4144 50.5597 100.102 51.6975 100.48C53.6177 101.117 53.5897 102.352 53.2448 104.027C52.4581 107.846 51.2215 111.478 49.1992 114.813C47.3155 117.922 44.8794 118.953 41.3411 118.104C38.8114 117.497 36.2432 116.911 34.4603 114.722C32.502 112.317 32.608 110.324 34.8845 108.332C35.7904 107.539 36.5562 106.631 36.9729 105.501C38.4959 101.367 38.0841 97.2819 36.4769 93.284C36.0617 92.2509 35.2983 91.2083 33.9553 91.7094C32.5514 92.2328 33.2341 93.3844 33.4664 94.3407C33.8745 96.0233 34.3353 97.6944 34.6878 99.3878C35.3676 102.654 33.8864 105.019 31.416 106.957C30.4369 107.725 29.3828 107.676 28.2678 107.394C20.08 105.318 12.4813 99.8919 14.2291 87.9801C14.583 85.57 13.7968 84.1684 11.9208 82.8307C6.74445 79.1407 5.4974 75.2939 7.76204 70.4026C11.458 72.736 15.3123 75.0713 19.776 74.807C23.0815 74.6109 23.9732 76.2806 24.6269 78.7821C24.8055 79.4642 24.9874 80.1795 25.3437 80.7749C26.1485 82.1197 25.701 82.9524 24.6216 83.9637C21.1475 87.2227 20.5489 92.4759 22.9803 96.5368C23.4402 97.3055 23.9912 97.7584 24.8929 97.5362C25.8031 97.3117 26.2074 96.6021 26.1091 95.75C26.0012 94.8196 25.7494 93.8955 25.4578 93.0012C24.9528 91.4494 24.8383 89.9118 25.4331 88.3723C26.5585 85.4587 28.1157 84.9187 30.4146 86.6623C33.293 88.8465 36.6608 89.0885 40.1306 88.1056C42.125 87.541 44.154 86.8916 45.6566 85.507C48.4984 82.889 51.794 81.8355 55.5593 81.8199C56.2515 81.8165 56.976 81.6451 57.6278 81.3978C58.5603 81.0435 59.4102 80.3619 59.1432 79.2918C58.8444 78.0934 57.7869 78.3335 56.794 78.4349C55.1551 78.6026 53.4724 78.8077 51.8548 78.6106C49.5061 78.3255 47.9132 79.3207 46.4994 80.9663C43.2323 84.7676 38.9097 85.5416 34.2246 85.058C32.6008 84.8903 31.2821 83.9789 30.3001 82.6327C29.32 81.2889 28.4972 79.865 27.8374 78.3335C26.4036 75.0064 26.5827 74.4299 29.8801 72.9113C31.1804 72.3125 33.1073 71.6361 32.4745 70.1573C31.7928 68.5666 29.9486 69.7167 28.6578 70.1374C23.4145 71.846 18.1978 72.6237 13.0144 69.9536C6.4024 66.5492 2.59902 58.7022 4.16722 51.6708C4.89312 48.4123 6.90075 46.1486 9.99057 44.2742Z" fill="#FEFEFE"/>
<path fill-rule="evenodd" clip-rule="evenodd" d="M114.358 48.7969C115.878 53.8283 115.812 58.9233 115.16 64.0159C113.135 79.827 105.172 92.6918 94.8492 104.346C89.9751 109.85 84.6196 114.877 79.0333 119.657C78.2186 120.354 77.3701 121.405 76.1554 120.584C74.9606 119.777 75.5625 118.62 75.9155 117.583C77.764 112.147 79.7897 106.764 81.432 101.267C84.7465 90.1737 83.5802 79.4476 78.1293 69.2283C75.6442 64.5696 73.1872 59.9071 71.5297 54.8761C71.2214 53.9406 70.9682 52.9876 70.6484 51.9028C72.1093 52.07 72.4314 53.0856 72.9682 53.7952C76.7255 58.7689 80.2604 63.9278 84.6681 68.3723C92.8867 76.659 102.555 75.4615 108.663 65.4331C111.201 61.2661 112.168 56.5227 113.487 51.9132C113.783 50.8763 114.068 49.8357 114.358 48.7969Z" fill="#FEFEFE"/>
<path fill-rule="evenodd" clip-rule="evenodd" d="M94.795 68.0805C90.842 68.0696 87.6557 64.8623 87.612 60.8507C87.5683 56.8007 90.9997 53.3987 95.1579 53.3693C99.1228 53.3409 102.417 56.535 102.492 60.4793C102.569 64.616 99.0492 68.0924 94.795 68.0805Z" fill="#FEFEFE"/>
</svg>
